<?xml version="1.0" encoding="utf-8"?>
<!-- Generator: Adobe Illustrator 24.3.0, SVG Export Plug-In . SVG Version: 6.00 Build 0)  -->
<svg version="1.1" id="Layer_1" xmlns="http://www.w3.org/2000/svg" xmlns:xlink="http://www.w3.org/1999/xlink" x="0px" y="0px"
	 viewBox="0 0 512 512" style="enable-background:new 0 0 512 512;" xml:space="preserve">
<g>
	<path d="M475.31,172.65L363.59,284.16l-33.57-33.57l-36.74,36.74l70.31,70.26L512,209.44L475.31,172.65z M51.96,165.06
		c0,59.25,44.68,103.93,103.93,103.93s103.93-44.68,103.93-103.93c0-59.22-44.68-103.93-103.93-103.93S51.96,105.84,51.96,165.06z
		 M207.85,165.06c0,30.6-21.36,51.96-51.96,51.96s-51.96-21.34-51.96-51.96c0-30.6,21.36-51.96,51.96-51.96
		S207.85,134.46,207.85,165.06z M51.96,424.88c0-42.96,34.96-77.95,77.95-77.95h51.96c42.98,0,77.95,34.99,77.95,77.95v25.98h51.96
		v-25.98c0-71.63-58.28-129.91-129.91-129.91h-51.96C58.28,294.97,0,353.25,0,424.88v25.98h51.96V424.88z"/>
</g>
</svg>
